<svg xmlns="http://www.w3.org/2000/svg" viewBox="0 0 64 64"><defs><radialGradient id="sg" cx="32" cy="32" r="32" gradientUnits="userSpaceOnUse"><stop stop-color="#8FBADD"/><stop offset="1" stop-color="#4B8FD6"/></radialGradient><mask id="k"><rect width="64" height="64" fill="#fff"/><circle cx="23" cy="23" r="14" fill="#000"/><path d="M4 58V50A14 14 0 0 1 18 36H28A14 14 0 0 1 42 50V58Z" fill="#000" stroke="#000" stroke-width="7" stroke-linejoin="round"/></mask></defs><rect width="64" height="64" rx="14.8" fill="url(#sg)"/><g transform="translate(10.00 10.00) scale(0.6875)"><g mask="url(#k)" fill="rgba(255,255,255,0.7)"><circle cx="43" cy="19" r="9"/><path d="M30 54V45A12 12 0 0 1 42 33H48A12 12 0 0 1 60 45V54Z"/></g><g fill="#ffffff"><circle cx="23" cy="23" r="10.5"/><path d="M4 58V50A14 14 0 0 1 18 36H28A14 14 0 0 1 42 50V58Z"/></g></g></svg>
