<svg xmlns="http://www.w3.org/2000/svg" viewBox="0 0 64 64"><defs><radialGradient id="sg" cx="32" cy="32" r="32" gradientUnits="userSpaceOnUse"><stop stop-color="#8FBADD"/><stop offset="1" stop-color="#4B8FD6"/></radialGradient></defs><rect width="64" height="64" rx="14.8" fill="url(#sg)"/><g transform="translate(10.00 10.00) scale(0.6875)"><path d="M32 20V30M13 30H51M13 30V38M51 30V38M32 30V38" fill="none" stroke="#ffffff" stroke-width="4" stroke-linecap="round"/><path d="M27 5H37A4 4 0 0 1 41 9V16A4 4 0 0 1 37 20H27A4 4 0 0 1 23 16V9A4 4 0 0 1 27 5Z" fill="#ffffff"/><path d="M8 38H18A4 4 0 0 1 22 42V49A4 4 0 0 1 18 53H8A4 4 0 0 1 4 49V42A4 4 0 0 1 8 38ZM27 38H37A4 4 0 0 1 41 42V49A4 4 0 0 1 37 53H27A4 4 0 0 1 23 49V42A4 4 0 0 1 27 38ZM46 38H56A4 4 0 0 1 60 42V49A4 4 0 0 1 56 53H46A4 4 0 0 1 42 49V42A4 4 0 0 1 46 38Z" fill="rgba(255,255,255,0.7)"/></g></svg>
